<?xml version="1.0" standalone="no"?>
<!DOCTYPE svg PUBLIC "-//W3C//DTD SVG 20010904//EN"
 "http://www.w3.org/TR/2001/REC-SVG-20010904/DTD/svg10.dtd">
<svg version="1.0" xmlns="http://www.w3.org/2000/svg"
 width="747.000000pt" height="1280.000000pt" viewBox="0 0 747.000000 1280.000000"
 preserveAspectRatio="xMidYMid meet">
<metadata>
Created by potrace 1.15, written by Peter Selinger 2001-2017
</metadata>
<g transform="translate(0.000000,1280.000000) scale(0.100000,-0.100000)"
fill="#000000" stroke="none">
<path d="M3555 12793 c-394 -21 -723 -95 -1191 -267 -91 -33 -434 -207 -519
-263 -49 -33 -129 -84 -176 -115 -329 -214 -759 -634 -966 -943 -22 -33 -72
-108 -112 -168 -40 -59 -83 -133 -97 -164 -14 -31 -38 -74 -53 -97 -31 -45
-108 -209 -165 -353 -20 -50 -43 -104 -51 -120 -8 -15 -15 -34 -15 -40 0 -7
-20 -75 -45 -152 -49 -154 -60 -200 -105 -436 -44 -237 -60 -402 -60 -646 0
-320 27 -594 85 -864 13 -60 26 -127 30 -148 10 -60 81 -285 131 -415 80 -207
243 -522 362 -702 60 -91 133 -191 161 -223 60 -68 95 -127 110 -182 6 -23 30
-63 54 -91 23 -28 60 -84 82 -125 22 -43 63 -98 96 -131 31 -32 60 -70 64 -85
3 -15 51 -118 105 -228 54 -110 110 -229 125 -265 15 -36 49 -118 76 -183 27
-65 49 -123 49 -129 0 -5 18 -50 39 -98 22 -48 54 -132 72 -186 17 -54 38
-108 44 -119 12 -19 69 -192 133 -400 31 -103 57 -204 67 -265 10 -58 45 -219
71 -325 13 -54 29 -151 34 -215 6 -63 15 -142 20 -175 6 -33 17 -125 25 -205
22 -205 43 -263 112 -309 l44 -29 -40 -7 c-48 -8 -89 -37 -102 -73 -16 -43 6
-78 70 -112 31 -17 63 -40 70 -52 8 -13 17 -68 21 -127 3 -59 8 -110 10 -116
2 -5 -2 -27 -9 -49 -17 -49 -9 -107 24 -186 29 -68 25 -103 -14 -159 -29 -40
-44 -122 -39 -202 4 -57 11 -77 42 -123 50 -75 48 -97 -17 -178 -29 -36 -29
-37 -17 -106 9 -58 18 -77 56 -123 24 -30 44 -58 44 -63 0 -5 -19 -38 -41 -74
-36 -57 -41 -72 -40 -120 1 -47 6 -60 40 -101 32 -38 40 -57 46 -106 10 -87
21 -123 51 -167 26 -37 101 -98 152 -125 41 -22 144 -36 175 -24 39 15 50 14
43 -5 -18 -46 63 -188 134 -236 l41 -28 804 0 c442 0 811 3 820 6 9 4 25 25
37 48 11 22 39 69 61 102 l39 61 70 6 c41 4 89 15 116 29 91 43 201 167 243
273 13 33 33 68 46 78 59 47 67 136 19 206 -32 46 -32 50 -1 83 14 15 25 31
25 36 0 5 9 17 21 28 12 10 28 32 36 48 19 36 4 98 -38 156 -16 22 -29 51 -29
64 0 13 21 51 46 85 25 33 49 74 54 91 16 55 -24 168 -75 210 -25 21 -18 43
45 126 88 116 85 134 -47 289 l-34 40 23 18 c62 48 58 37 58 181 0 120 2 136
21 160 11 14 29 26 39 26 26 0 50 38 50 77 0 18 -9 55 -20 83 -26 67 -25 100
4 143 40 59 47 75 58 140 12 69 13 84 23 212 4 50 10 99 15 110 13 30 37 124
45 175 4 25 17 83 30 130 12 47 20 99 18 116 -6 38 12 128 32 168 8 15 15 49
15 75 0 25 4 62 10 81 5 19 15 84 21 145 7 73 17 120 29 140 10 17 30 73 45
125 14 52 35 113 46 136 10 22 19 51 19 65 0 13 6 36 14 50 25 49 57 156 50
172 -4 12 -1 17 11 17 10 0 15 5 12 13 -3 7 4 19 14 25 10 7 19 17 19 23 0 8
-5 7 -15 -1 -17 -14 -31 -8 -20 9 3 6 15 11 26 11 12 0 19 5 16 13 -2 6 6 33
19 59 13 26 24 55 24 65 0 10 10 38 22 63 12 25 22 48 22 52 1 4 11 16 24 28
12 11 22 26 22 32 0 7 9 22 21 34 11 12 21 28 23 35 4 24 78 180 98 205 5 7
19 31 32 55 55 106 87 163 106 189 11 15 20 33 20 38 0 6 12 24 26 41 14 17
22 31 17 31 -4 0 -3 4 2 8 6 4 19 25 30 47 11 22 26 48 34 58 8 10 16 27 18
39 5 33 121 241 147 263 28 24 46 57 46 83 0 11 15 35 33 54 17 19 47 59 65
89 18 30 64 97 102 149 38 52 95 140 127 195 72 122 214 401 238 470 10 28 22
55 27 61 13 18 128 357 128 379 0 11 7 45 15 75 26 95 85 401 96 495 38 353
36 733 -6 1010 -33 214 -70 399 -101 491 -12 39 -30 102 -39 139 -8 37 -22 79
-29 94 -8 14 -35 84 -61 155 -26 71 -67 170 -92 220 -25 50 -63 127 -85 171
-22 44 -64 118 -95 165 -30 47 -79 126 -110 175 -113 180 -404 520 -575 670
-43 38 -78 72 -78 76 0 9 -101 88 -190 149 -36 25 -85 60 -110 79 -25 18 -56
39 -70 45 -14 6 -44 25 -68 43 -24 18 -49 33 -55 33 -7 0 -32 14 -57 31 -219
148 -765 352 -1135 423 -273 53 -630 75 -930 59z m665 -138 c310 -34 702 -137
970 -255 184 -81 515 -260 638 -347 267 -187 546 -461 783 -768 73 -95 221
-321 281 -430 59 -107 188 -377 188 -392 0 -5 20 -61 44 -124 80 -207 153
-489 191 -737 31 -203 45 -667 25 -842 -5 -47 -14 -126 -20 -177 -35 -318
-144 -730 -271 -1019 -130 -297 -340 -648 -509 -854 -58 -70 -121 -165 -169
-255 -53 -99 -109 -200 -295 -533 -53 -95 -96 -177 -96 -181 0 -5 -6 -14 -14
-20 -17 -14 -76 -136 -76 -156 0 -17 -45 -107 -76 -153 -14 -19 -32 -60 -40
-90 -9 -30 -28 -76 -43 -101 -15 -25 -35 -77 -45 -116 -10 -38 -28 -97 -42
-131 -13 -33 -24 -67 -24 -75 0 -8 -4 -19 -9 -25 -12 -12 -71 -183 -71 -205 0
-9 -7 -41 -16 -70 -33 -115 -43 -156 -55 -219 -6 -36 -17 -87 -25 -115 -7 -27
-16 -79 -20 -115 -4 -36 -12 -74 -18 -85 -6 -11 -14 -63 -18 -115 -3 -52 -9
-111 -12 -130 -13 -76 -39 -186 -48 -196 -5 -7 -13 -38 -18 -70 -5 -31 -23
-85 -40 -120 -16 -35 -30 -74 -30 -87 0 -14 -7 -38 -15 -53 -8 -16 -15 -46
-15 -66 0 -69 -21 -136 -56 -180 -18 -24 -34 -53 -34 -66 0 -13 -5 -32 -11
-44 -11 -20 -17 -20 -329 -15 -176 3 -325 9 -331 13 -15 9 -5 775 14 1076 11
175 14 200 34 226 21 28 22 39 25 318 l3 289 -33 96 c-17 53 -42 109 -54 124
-20 26 -22 38 -19 149 1 67 7 141 12 166 6 25 11 72 13 105 2 33 13 123 25
200 13 77 29 199 36 270 8 72 21 166 30 210 9 44 20 114 25 155 19 145 41 326
50 402 5 43 11 86 14 95 3 10 10 54 16 98 19 151 58 387 65 393 4 4 23 12 43
17 29 8 42 20 62 57 20 39 22 48 11 62 -7 9 -26 16 -42 16 -16 0 -29 5 -29 11
0 11 254 784 335 1019 24 69 60 179 81 245 l37 120 72 67 c52 49 81 86 105
135 40 83 46 157 15 179 -29 19 -63 0 -100 -59 -16 -25 -33 -47 -37 -47 -4 0
-8 14 -10 32 -2 17 -8 33 -14 35 -17 6 -27 -29 -12 -39 10 -6 9 -11 -4 -19
-10 -5 -18 -21 -18 -34 0 -15 -7 -26 -20 -30 -35 -11 -43 3 -36 65 4 35 3 61
-3 64 -16 10 -41 -36 -41 -76 0 -52 -38 -86 -67 -57 -7 7 -6 22 4 52 11 31 12
47 3 65 -10 24 -11 24 -30 7 -21 -19 -27 -45 -10 -45 6 0 10 5 10 10 0 6 5 10
11 10 6 0 9 -10 7 -22 -2 -15 -9 -22 -21 -21 -10 0 -23 -9 -29 -22 -10 -22
-51 -48 -61 -39 -3 3 -3 31 0 63 6 62 -3 78 -31 58 -11 -8 -20 -33 -24 -67 -6
-50 -9 -55 -32 -55 -25 0 -25 1 -21 68 2 43 -1 67 -8 67 -17 0 -38 -41 -46
-87 -5 -33 -11 -43 -26 -43 -16 0 -18 5 -13 28 7 27 7 27 -14 8 -20 -18 -22
-18 -28 -1 -6 14 -9 11 -20 -14 -14 -33 -14 -33 -63 -4 -2 2 -3 30 -2 64 3 78
-18 77 -36 -2 -12 -54 -32 -79 -64 -79 -15 0 -17 7 -12 54 3 30 3 63 -1 72
-12 30 -37 -7 -44 -62 -6 -55 -14 -64 -58 -64 -39 0 -46 7 -32 34 20 37 27 85
13 96 -18 15 -46 -21 -52 -68 -5 -37 -9 -41 -40 -47 -19 -3 -37 -4 -40 -1 -3
3 2 21 11 40 18 39 21 82 6 91 -18 11 -39 -15 -51 -59 -12 -46 -32 -66 -67
-66 -21 0 -23 3 -18 26 18 72 19 84 2 90 -27 10 -40 -12 -46 -74 l-5 -57 -34
2 c-45 2 -53 19 -29 64 15 30 17 42 8 58 -6 12 -14 21 -18 21 -23 -1 -52 -45
-52 -80 0 -11 -12 -33 -26 -47 -25 -25 -27 -25 -40 -9 -8 12 -12 47 -11 104 1
72 -3 94 -21 129 -21 41 -22 41 -54 30 -40 -15 -44 -20 -52 -66 -3 -20 -15
-54 -26 -76 -11 -21 -20 -51 -20 -65 0 -32 -17 -50 -47 -50 -22 0 -23 3 -21
53 5 83 -31 67 -59 -28 -8 -29 -37 -45 -53 -28 -5 4 -2 34 7 66 17 60 14 74
-12 64 -16 -7 -30 -34 -39 -79 -4 -18 -15 -30 -31 -34 -36 -9 -45 1 -34 38 5
18 6 41 3 50 -11 35 -33 18 -51 -39 -22 -67 -41 -83 -77 -63 -30 16 -32 27 -9
74 13 29 14 38 3 51 -17 21 -36 4 -45 -41 -12 -65 -25 -84 -60 -84 l-31 0 3
58 c7 109 -35 110 -48 2 -4 -34 -10 -64 -13 -67 -7 -8 -63 -6 -76 2 -6 3 -7
30 -4 64 5 41 3 60 -6 66 -17 10 -27 -10 -35 -67 -7 -50 -24 -68 -64 -68 -25
0 -26 4 -4 81 15 54 15 61 1 75 -14 14 -17 14 -32 -1 -9 -9 -18 -28 -21 -43
-16 -77 -21 -87 -43 -90 -24 -4 -25 0 -22 61 2 44 -23 89 -45 81 -24 -10 -31
-74 -11 -107 16 -28 16 -31 0 -48 -19 -22 -67 -25 -82 -6 -7 8 -7 32 -1 71 8
46 7 61 -3 68 -38 24 -63 -8 -63 -81 0 -49 -2 -56 -20 -56 -17 0 -21 8 -25 56
-5 58 -22 89 -47 89 -13 0 -14 -12 -8 -75 7 -74 7 -74 -19 -81 -43 -11 -56 9
-49 75 6 62 -8 104 -31 95 -23 -9 -39 -61 -33 -110 6 -60 -14 -53 -30 10 -21
82 -64 124 -98 96 -33 -28 -3 -177 41 -206 20 -14 23 -22 18 -49 -7 -39 10
-54 28 -25 15 23 28 26 28 7 0 -7 15 -43 33 -78 18 -36 39 -86 46 -110 7 -24
37 -116 66 -204 59 -177 96 -299 100 -330 1 -11 7 -31 13 -45 17 -39 68 -217
97 -336 14 -60 37 -149 51 -199 14 -49 28 -115 31 -145 4 -50 2 -59 -26 -97
-17 -24 -31 -55 -31 -71 0 -31 30 -65 68 -77 31 -9 45 -39 53 -115 4 -36 16
-119 27 -185 11 -66 23 -159 26 -206 6 -90 26 -209 52 -318 9 -38 13 -81 10
-103 -4 -21 -3 -38 1 -38 5 0 8 -21 9 -47 0 -27 6 -75 13 -108 13 -67 26 -169
46 -360 24 -237 45 -419 60 -525 22 -154 21 -172 -20 -228 -56 -79 -67 -143
-62 -360 8 -383 13 -446 39 -494 53 -96 58 -135 58 -419 0 -145 -3 -396 -7
-556 l-6 -293 -354 0 c-345 0 -354 0 -371 21 -9 11 -29 27 -43 34 -15 8 -51
35 -80 60 l-54 46 -17 147 c-10 81 -22 183 -27 227 -6 44 -15 128 -21 187 -6
60 -27 183 -46 275 -20 93 -44 215 -54 273 -10 58 -28 141 -40 185 -35 126
-80 275 -102 335 -49 139 -100 276 -148 395 -76 190 -101 255 -115 301 -7 22
-26 67 -43 100 -16 32 -37 84 -47 114 -10 30 -32 84 -50 120 -18 36 -36 76
-40 89 -10 33 -104 194 -160 276 -25 37 -45 72 -45 79 0 7 -12 26 -28 43 -15
17 -42 58 -61 90 -46 77 -140 222 -166 254 -12 15 -44 69 -70 120 -27 52 -72
126 -101 164 -110 147 -288 475 -377 695 -206 511 -288 978 -274 1565 10 384
45 607 153 961 155 513 388 932 760 1366 114 133 329 334 528 494 83 67 311
216 450 294 420 237 858 375 1378 435 159 18 624 13 828 -10z m-402 -3466 c9
-77 2 -124 -18 -124 -31 0 -50 164 -24 206 13 22 34 -18 42 -82z m-955 7 c3
-8 -1 -22 -8 -33 -13 -17 -14 -16 -15 15 0 33 13 43 23 18z m-604 -49 c10 -27
11 -41 3 -49 -8 -8 -16 -1 -31 23 -26 42 -27 72 -4 67 10 -2 24 -20 32 -41z
m1466 16 c0 -14 -6 -28 -12 -31 -14 -4 -17 16 -7 42 9 25 20 19 19 -11z m1652
11 c9 -25 -23 -115 -56 -154 -16 -19 -31 -33 -34 -30 -3 3 -1 23 4 45 5 22 11
56 14 76 5 35 36 79 56 79 5 0 12 -7 16 -16z m-2777 -14 c0 -11 -4 -20 -10
-20 -5 0 -10 9 -10 20 0 11 5 20 10 20 6 0 10 -9 10 -20z m507 -17 c-3 -10 -5
-4 -5 12 0 17 2 24 5 18 2 -7 2 -21 0 -30z m878 28 c5 -8 -20 -41 -31 -41 -2
0 -4 11 -4 25 0 25 23 35 35 16z m918 -18 c3 -5 1 -19 -4 -32 -12 -30 -31 -15
-23 17 6 22 19 29 27 15z m-1647 -89 c21 -14 33 -15 81 -5 76 15 124 14 150
-4 16 -12 27 -12 52 -4 22 8 40 8 62 0 24 -8 35 -7 53 4 21 14 26 13 57 -8
l34 -23 -1 -184 c-1 -102 -5 -425 -9 -719 l-8 -534 -79 6 c-43 3 -85 11 -93
17 -28 23 -200 -12 -249 -51 -24 -19 -27 -27 -22 -58 14 -81 19 -75 -69 -84
-80 -8 -374 8 -386 21 -12 13 -39 105 -39 131 0 14 -13 73 -29 131 -27 94 -41
153 -97 405 -31 136 -66 235 -88 247 -31 16 -31 17 -11 32 17 12 17 15 -3 77
-36 114 -62 183 -171 457 -23 56 -41 106 -41 110 0 4 45 8 100 9 55 1 109 7
119 12 13 7 24 6 37 -4 25 -19 74 -19 102 1 16 11 34 14 58 9 22 -4 41 -2 50
6 11 9 18 9 26 1 15 -15 63 -15 89 -2 14 8 27 6 50 -6 21 -10 42 -14 63 -9 17
3 57 9 88 13 31 4 60 11 64 15 12 11 33 8 60 -9z m730 -21 c22 -14 31 -15 58
-4 38 15 133 20 163 10 13 -5 43 -5 68 0 25 5 47 5 50 1 8 -13 78 -20 92 -8
10 8 20 8 38 -2 20 -11 30 -10 62 3 27 10 44 12 56 6 9 -6 22 -7 28 -3 6 3 15
1 19 -6 11 -18 288 -14 333 5 29 12 34 11 60 -11 36 -30 51 -30 75 1 18 22 23
24 51 14 17 -6 43 -8 56 -5 14 4 25 3 25 -1 0 -22 -23 -92 -41 -125 -11 -21
-27 -60 -35 -88 -8 -28 -34 -86 -56 -128 -27 -51 -107 -275 -239 -672 l-198
-595 -224 -3 -224 -2 -6 46 c-3 34 -13 54 -36 78 l-31 31 -151 2 c-123 1 -154
4 -167 17 -14 14 -16 84 -15 628 1 375 5 637 11 675 21 121 104 185 178 136z
m138 -1531 c31 -46 33 -84 5 -123 -25 -35 -60 -54 -116 -64 -51 -8 -45 24 -48
-290 0 -126 -7 -486 -14 -800 -7 -313 -12 -622 -10 -686 l4 -116 45 -58 c27
-35 84 -87 140 -128 168 -123 204 -167 195 -234 -3 -21 -12 -200 -21 -397 -8
-198 -19 -367 -23 -375 -5 -8 -4 -30 2 -50 9 -34 7 -246 -12 -1001 l-6 -254
-25 -7 c-31 -9 -901 -11 -953 -3 l-37 7 5 46 c9 75 12 653 4 826 -3 88 -11
196 -18 240 -42 299 -83 739 -82 885 0 36 -2 83 -5 106 -6 41 -6 41 73 106 71
60 134 123 252 253 l44 49 8 191 c4 104 10 210 13 235 3 25 6 347 7 717 1 647
1 673 -18 705 -10 18 -35 43 -54 55 -64 41 -90 65 -109 104 -22 42 -25 65 -10
74 28 17 124 23 416 24 l321 1 27 -38z m651 -112 c7 -11 -42 -37 -51 -27 -9 9
15 37 32 37 7 0 16 -4 19 -10z m-2021 -12 c15 -47 16 -68 3 -68 -8 0 -22 9
-31 19 -15 16 -15 22 -4 40 15 24 27 27 32 9z m414 -8 c197 -12 282 -37 305
-87 9 -22 12 -232 12 -898 l0 -870 -27 -51 c-46 -88 -76 -117 -257 -246 -36
-26 -69 -48 -72 -48 -3 0 -13 84 -23 188 -57 600 -67 683 -137 1127 -41 260
-67 432 -78 515 -11 82 -33 208 -45 260 -8 33 5 51 43 58 46 10 34 27 -18 27
-56 0 -67 22 -14 28 72 7 158 6 311 -3z m1322 -20 c31 -4 59 -4 65 1 12 12 62
12 70 0 3 -5 0 -13 -6 -16 -5 -4 -8 -13 -5 -20 10 -28 -52 -528 -79 -635 -12
-48 -12 -57 0 -70 13 -12 12 -17 -4 -35 -14 -15 -22 -54 -35 -155 -29 -241
-56 -435 -61 -449 -3 -8 -17 -116 -31 -240 -13 -124 -29 -250 -34 -280 -6 -30
-10 -75 -10 -100 -1 -94 -36 -191 -69 -191 -4 0 -12 13 -18 28 -8 17 -45 49
-95 82 -45 30 -90 61 -99 70 -10 8 -29 23 -44 33 -15 11 -24 25 -21 33 3 8 1
26 -5 41 -16 44 -12 552 6 690 9 63 13 118 10 121 -2 3 0 11 6 18 7 9 6 16 -3
24 -10 10 -12 97 -10 429 3 517 7 561 49 561 8 0 33 13 57 29 23 16 53 31 66
34 42 7 242 6 300 -3z m-48 -2392 c22 -42 23 -53 26 -353 l3 -311 -35 -37
c-19 -20 -43 -37 -53 -36 -11 0 -13 3 -5 6 10 4 10 7 -2 17 -13 9 -14 36 -6
196 5 102 12 264 16 360 3 96 7 181 10 188 7 23 24 12 46 -30z m-1337 -253 c4
-66 13 -158 20 -205 8 -47 17 -150 20 -230 4 -80 11 -165 16 -189 5 -24 10
-87 10 -140 0 -53 1 -213 1 -356 3 -386 0 -639 -8 -658 -3 -9 -12 -17 -20 -17
-16 0 -19 16 -5 24 10 7 7 562 -5 978 l-7 252 -29 55 c-28 52 -30 66 -38 226
-17 314 -17 500 0 520 14 17 16 11 27 -61 6 -43 14 -133 18 -199z m1285 -1038
c0 -144 5 -329 11 -412 7 -86 9 -191 4 -247 l-7 -98 -34 0 -34 0 0 218 c0 119
9 336 20 482 11 146 20 280 20 298 0 20 4 31 10 27 6 -4 10 -104 10 -268z
m-159 -808 c1079 -4 1049 -3 1049 -50 0 -19 -17 -35 -27 -25 -3 3 0 12 7 21
10 12 10 15 -4 15 -9 0 -16 -7 -16 -16 0 -35 -53 -40 -350 -32 -157 4 -478 7
-715 6 -236 -1 -788 2 -1225 6 -656 7 -799 11 -817 22 -23 14 -30 43 -15 58 4
4 252 6 552 4 300 -3 1002 -7 1561 -9z m-1663 -224 c2 -61 -2 -127 -8 -147
l-11 -38 -117 0 c-64 0 -122 4 -128 8 -14 9 -29 207 -20 257 l7 36 137 -3 137
-3 3 -110z m2348 99 l232 -6 6 -30 c12 -59 7 -265 -6 -276 -9 -6 -34 -7 -73
-1 -33 5 -107 9 -165 9 -231 1 -1930 20 -2003 22 l-77 3 -5 105 c-3 58 -7 122
-11 142 -5 32 -3 37 18 41 31 6 1796 -2 2084 -9z m-1056 -381 c245 -4 423 -10
395 -14 -27 -3 -81 -11 -120 -17 -122 -18 -264 -32 -460 -42 -104 -6 -197 -13
-205 -15 -8 -3 -37 -1 -65 3 -27 5 -81 5 -120 1 -38 -4 -124 -13 -190 -19 -66
-6 -136 -16 -155 -22 -19 -6 -60 -12 -90 -14 -51 -3 -334 -74 -348 -88 -3 -4
1 -13 9 -21 11 -11 26 -13 67 -6 29 4 55 4 58 0 3 -5 16 -6 30 -3 31 8 32 -15
1 -44 -42 -40 -96 -54 -223 -60 -69 -3 -124 -1 -127 4 -3 5 3 34 13 64 28 81
25 126 -14 213 -35 75 -35 76 -13 80 38 7 1094 7 1557 0z m1204 -30 c4 -16 20
-49 36 -73 51 -77 51 -76 -122 -83 -84 -4 -214 -13 -288 -22 -74 -8 -202 -20
-285 -25 -82 -5 -226 -16 -320 -24 -233 -21 -606 -41 -746 -41 -101 0 -120 3
-138 19 -30 27 -26 49 13 84 39 34 83 45 251 62 61 6 151 15 202 21 50 6 108
7 127 3 37 -6 169 6 334 32 51 8 143 17 205 21 61 3 123 11 137 16 49 21 178
33 382 35 l206 3 6 -28z m-2199 -218 c-80 -35 -114 -47 -127 -43 -18 6 18 25
84 42 66 18 82 19 43 1z m2335 -21 c0 -3 -9 -19 -21 -35 -15 -22 -26 -28 -40
-24 -25 8 -132 -23 -124 -35 4 -6 19 -10 34 -10 35 0 62 -27 41 -40 -12 -7
-10 -20 9 -76 18 -52 20 -68 10 -74 -7 -5 -64 -11 -128 -15 -64 -3 -154 -10
-201 -15 -47 -5 -155 -14 -240 -20 -85 -7 -245 -20 -355 -31 -110 -11 -346
-28 -525 -39 -179 -11 -368 -24 -420 -29 -125 -14 -117 -15 -132 16 -11 23
-22 29 -66 36 -53 9 -53 9 -35 29 10 11 28 24 41 29 12 5 22 15 22 23 0 16 27
21 175 36 55 6 113 15 129 20 16 6 56 10 90 10 34 0 88 5 121 10 33 6 124 15
203 20 79 5 149 14 156 20 8 5 20 8 29 4 14 -5 56 0 227 26 36 5 157 13 270
16 113 3 212 10 221 15 9 4 69 11 135 15 113 6 144 14 144 36 0 12 -197 2
-330 -18 -52 -8 -151 -14 -220 -14 -69 0 -177 -7 -240 -16 -108 -14 -185 -22
-405 -44 -49 -5 -128 -13 -175 -19 -47 -6 -166 -18 -265 -26 -178 -16 -248
-24 -395 -45 -41 -6 -133 -14 -205 -19 -137 -9 -165 -15 -165 -36 0 -9 25 -12
93 -12 51 0 103 -5 115 -12 24 -13 20 -37 -9 -46 -10 -4 -22 -17 -25 -30 -3
-14 -24 -35 -48 -49 -38 -22 -58 -26 -196 -32 l-153 -7 7 66 c8 70 -7 118 -53
177 -11 14 -22 35 -26 47 -5 18 -1 22 32 27 52 8 678 53 838 61 72 3 279 14
460 25 182 11 364 21 405 24 41 2 163 11 270 19 107 9 310 23 450 32 140 9
296 20 345 24 50 5 98 9 108 10 9 0 17 -2 17 -5z m-2260 -38 c0 -18 -32 -26
-100 -25 l-55 1 55 18 c67 23 100 25 100 6z m2224 -352 c26 -10 19 -30 -29
-84 -41 -47 -72 -116 -62 -143 2 -7 0 -20 -5 -29 -8 -16 -25 -18 -144 -18 -74
0 -165 -4 -202 -10 -67 -9 -361 -34 -542 -45 -52 -3 -178 -14 -280 -25 -102
-10 -286 -28 -410 -40 -124 -11 -290 -28 -369 -36 -142 -15 -144 -15 -163 5
-10 12 -30 21 -43 21 -14 0 -25 5 -25 10 0 15 60 49 100 56 19 3 78 14 130 25
129 26 216 38 335 49 384 34 514 48 575 60 30 6 73 13 95 14 147 11 228 20
282 32 34 8 83 13 110 13 88 -3 342 9 353 16 7 4 8 11 3 16 -13 13 -481 -6
-518 -21 -17 -6 -50 -9 -75 -6 -25 3 -81 -1 -125 -10 -44 -8 -129 -19 -188
-24 -59 -5 -113 -12 -119 -16 -10 -7 -86 -10 -403 -18 -88 -2 -188 -9 -221
-15 -34 -6 -75 -11 -90 -11 -16 0 -94 -5 -174 -10 -80 -6 -157 -8 -172 -6 -36
7 -328 -30 -341 -43 -6 -6 -7 -14 -3 -18 9 -10 133 -9 202 2 49 7 124 -7 124
-23 0 -14 -60 -70 -109 -102 -44 -28 -65 -34 -140 -41 -48 -4 -99 -13 -114
-18 -32 -12 -43 2 -34 45 6 32 -17 97 -55 157 -19 30 -27 52 -22 57 6 6 68 14
139 20 72 5 234 19 360 30 209 18 669 56 983 80 67 5 162 14 210 20 48 6 233
22 412 36 179 14 393 32 475 39 177 14 267 17 289 9z m-16 -383 c3 -16 -13
-48 -48 -98 -29 -41 -56 -89 -61 -107 l-9 -33 -368 -6 c-202 -3 -572 -11 -822
-17 -250 -7 -478 -9 -506 -5 -46 5 -54 10 -63 35 -7 21 -6 31 2 38 16 13 294
28 648 35 80 2 151 7 158 11 12 8 123 19 166 17 11 -1 67 -2 125 -2 57 0 112
-5 122 -10 19 -10 47 -6 243 32 74 14 120 18 171 13 78 -7 104 6 68 34 -16 11
-46 13 -169 8 -82 -4 -181 -13 -220 -21 -38 -8 -89 -15 -112 -15 -23 0 -54 -5
-68 -10 -17 -7 -39 -7 -60 -1 -18 5 -52 5 -76 0 -24 -4 -192 -15 -374 -24
-181 -8 -409 -20 -505 -26 -96 -6 -186 -11 -200 -10 -110 5 -243 -27 -340 -81
l-55 -30 -211 -5 c-235 -6 -284 -2 -284 26 0 44 29 53 252 72 117 10 283 25
368 33 186 18 360 33 535 46 72 6 204 17 295 25 484 42 646 56 860 70 129 9
260 20 290 24 30 5 98 8 150 7 92 -1 95 -2 98 -25z m-109 -367 l25 -5 -26 -22
c-14 -12 -32 -40 -38 -62 -27 -86 -73 -160 -139 -223 -36 -35 -76 -67 -89 -72
-14 -6 -82 -6 -180 0 -86 5 -411 15 -722 21 -311 7 -626 15 -700 18 l-134 6
-7 32 c-3 18 -12 39 -18 47 -10 12 -8 17 9 26 32 17 65 5 115 -41 43 -40 45
-41 137 -46 51 -3 138 -1 193 5 129 15 227 16 523 7 175 -6 242 -5 242 3 0 19
-105 29 -430 42 -190 7 -451 28 -577 46 -57 8 -83 101 -48 168 8 15 12 33 9
38 -4 6 -50 9 -113 7 -58 -2 -144 0 -191 5 -78 7 -87 6 -107 -13 -35 -34 -38
-78 -9 -161 28 -82 50 -110 107 -135 21 -10 39 -22 39 -27 0 -4 -48 -8 -107
-8 -97 0 -118 4 -207 35 -60 21 -110 45 -128 62 -37 36 -74 102 -92 167 -8 28
-18 62 -22 74 l-7 24 1334 -7 c734 -3 1345 -8 1358 -11z m-934 -441 c-11 -47
-57 -157 -70 -172 -8 -7 -20 -11 -29 -8 -13 5 -11 18 15 94 16 48 31 94 34
101 2 6 16 12 31 12 24 0 25 -3 19 -27z m147 21 l45 -6 -23 -47 c-12 -25 -33
-70 -45 -98 l-22 -53 -58 0 c-32 0 -61 4 -64 10 -7 11 20 95 41 127 8 12 14
31 14 42 0 28 34 35 112 25z"/>
<path d="M4681 9192 c-16 -31 -15 -47 4 -32 10 9 15 9 15 1 0 -6 5 -11 10 -11
14 0 12 23 -4 45 -13 18 -14 18 -25 -3z"/>
<path d="M3474 7459 c-3 -6 9 -26 27 -45 39 -40 81 -45 115 -13 23 21 78 38
126 39 34 0 133 -91 125 -115 -7 -17 22 -21 39 -6 5 5 41 26 79 46 65 34 122
81 112 92 -3 2 -142 6 -310 8 -212 3 -308 1 -313 -6z"/>
<path d="M3735 5140 c-24 -9 -12 -15 49 -24 48 -6 108 -37 160 -82 23 -20 42
-30 44 -24 6 16 -43 65 -104 106 -52 35 -103 43 -149 24z"/>
<path d="M3581 5125 c-57 -18 -153 -112 -185 -180 -13 -27 -41 -70 -63 -95
-22 -25 -45 -55 -51 -67 -13 -23 -16 -81 -6 -107 11 -28 50 -18 83 19 28 32
31 42 31 102 0 55 6 78 34 137 37 75 104 141 155 152 94 21 103 25 91 40 -15
17 -31 17 -89 -1z"/>
<path d="M4056 4899 l-26 -21 21 -29 c22 -31 44 -36 72 -15 24 18 21 52 -5 70
-29 20 -30 20 -62 -5z"/>
<path d="M3677 4701 c-100 -38 -142 -115 -140 -258 1 -72 4 -86 27 -116 31
-41 105 -82 163 -92 23 -3 68 -3 99 1 51 6 62 12 101 53 50 52 83 118 83 164
0 83 -49 193 -99 225 -14 9 -29 21 -33 27 -13 18 -149 16 -201 -4z m194 -74
c19 -13 42 -26 52 -30 34 -13 51 -113 24 -136 -19 -15 -27 -4 -27 36 0 35 -29
73 -54 73 -20 0 -27 -13 -29 -62 -2 -30 -13 -57 -35 -87 -18 -25 -31 -49 -29
-55 2 -6 25 -15 50 -20 26 -4 47 -11 47 -15 0 -5 -23 -20 -51 -36 -43 -23 -55
-26 -75 -16 -14 6 -34 11 -44 11 -10 0 -23 6 -27 13 -4 7 -21 21 -36 31 -36
22 -57 71 -57 130 0 67 23 106 88 148 49 32 65 38 113 38 42 0 65 -6 90 -23z"/>
<path d="M4057 4195 c-10 -9 -34 -49 -54 -89 -20 -39 -46 -81 -59 -92 -45 -42
-53 -100 -47 -348 l6 -227 31 7 c17 3 32 7 33 8 1 1 2 93 3 206 2 305 17 390
82 489 31 46 34 75 5 46z"/>
<path d="M3370 4185 c-11 -13 -8 -21 19 -48 68 -71 91 -209 92 -569 0 -128 5
-258 10 -288 5 -30 12 -70 16 -88 19 -110 79 14 88 183 21 391 21 408 3 500
-21 106 -77 228 -116 252 -15 9 -39 29 -54 45 -31 32 -40 34 -58 13z"/>
<path d="M3324 213 c-55 -3 -76 -8 -90 -24 -31 -35 -6 -44 137 -48 l130 -3 23
-52 c20 -46 29 -54 70 -70 65 -25 113 -16 149 26 15 18 27 37 27 44 0 28 34
38 161 44 102 5 133 10 146 23 43 43 -37 54 -397 60 -157 2 -317 2 -356 0z
m396 -90 c0 -26 -12 -40 -43 -52 -44 -17 -60 -13 -85 22 -20 29 -21 32 -5 39
10 3 44 7 76 7 48 1 57 -2 57 -16z"/>
</g>
</svg>
